<?xml version="1.0" encoding="utf-8"?>
<!-- Generator: Adobe Illustrator 16.0.0, SVG Export Plug-In . SVG Version: 6.00 Build 0)  -->
<!DOCTYPE svg PUBLIC "-//W3C//DTD SVG 1.1 Basic//EN" "http://www.w3.org/Graphics/SVG/1.1/DTD/svg11-basic.dtd">
<svg version="1.1" baseProfile="basic" id="Layer_1"
	 xmlns="http://www.w3.org/2000/svg" xmlns:xlink="http://www.w3.org/1999/xlink" x="0px" y="0px" width="197.724px" height="87px"
	 viewBox="0 0 197.724 87" xml:space="preserve">
<g>
	<path fill="#00BDF2" d="M114.532,42.117c1.875-2.202,4.282-3.303,7.231-3.303c1.79,0,3.144,0.471,4.064,1.409
		c0.912,0.937,1.371,2.077,1.371,3.425c0,0.766-0.237,2.275-0.71,4.512l-2.231,10.483h-7.837l1.849-9.123
		c0.443-2.102,0.663-3.29,0.663-3.566c0-0.79-0.342-1.185-1.035-1.185c-0.94,0-1.778,0.466-2.507,1.386
		c-0.736,0.926-1.295,2.293-1.679,4.1l-1.827,8.388h-7.875l4.08-19.408h7.374l-0.618,3.065L114.532,42.117z M130.098,45.038
		c0.46-2.131,1.505-3.699,3.115-4.711c1.618-1.005,4.082-1.513,7.393-1.513c3.749,0,6.313,0.489,7.676,1.47
		c1.367,0.98,2.056,2.414,2.056,4.298c0,1.199-0.333,3.154-0.981,5.875c-0.595,2.513-0.889,4.252-0.889,5.23
		c0,0.816,0.152,1.796,0.46,2.956h-7.656c-0.21-0.95-0.313-1.658-0.313-2.128c-1.539,1.71-3.504,2.567-5.919,2.567
		c-2.464,0-4.248-0.587-5.352-1.766c-1.097-1.176-1.649-2.543-1.649-4.091c0-1.758,0.493-3.096,1.479-4.027
		c0.98-0.927,2.162-1.553,3.545-1.87c1.388-0.321,3.258-0.596,5.617-0.833c2.047-0.221,3.339-0.412,3.885-0.575
		c0.098-0.406,0.153-0.737,0.153-0.987c0-0.327-0.195-0.601-0.589-0.836c-0.385-0.232-0.938-0.342-1.648-0.342
		c-0.764,0-1.365,0.11-1.813,0.342c-0.447,0.235-0.881,0.804-1.305,1.717L130.098,45.038z M141.714,50.281
		c-2.961,0.545-4.689,1-5.186,1.362c-0.502,0.367-0.746,0.778-0.746,1.225c0,0.496,0.162,0.883,0.494,1.158
		c0.332,0.281,0.772,0.417,1.337,0.417c0.813,0,1.63-0.337,2.443-1.014C140.872,52.755,141.424,51.706,141.714,50.281
		 M161.877,41.184l0.286,0.178l0.351-2.128h-7.281l-5.53,26.188h7.845l1.841-9.264c1.085,1.975,3.003,2.961,5.756,2.961
		c2.695,0,4.915-1.227,6.656-3.666c1.739-2.44,2.617-5.284,2.617-8.531c0-2.453-0.596-4.413-1.785-5.891
		c-1.184-1.479-2.88-2.218-5.099-2.218c-1.184,0-2.201,0.169-3.058,0.514C163.617,39.671,162.747,40.29,161.877,41.184
		 M163.237,53.547c-0.617,0-1.168-0.234-1.654-0.701c-0.479-0.47-0.723-1.204-0.723-2.212c0-1.501,0.336-2.942,0.998-4.327
		c0.662-1.391,1.581-2.083,2.753-2.083c0.558,0,1.048,0.219,1.459,0.648c0.415,0.436,0.624,1.177,0.624,2.224
		c0,1.826-0.355,3.354-1.054,4.592C164.939,52.928,164.138,53.547,163.237,53.547 M185.185,41.184
		c0.869-0.894,1.742-1.513,2.599-1.856c0.858-0.345,1.875-0.514,3.058-0.514c2.22,0,3.917,0.739,5.097,2.218
		c1.191,1.478,1.785,3.438,1.785,5.891c0,3.248-0.875,6.091-2.616,8.531c-1.744,2.439-3.959,3.666-6.657,3.666
		c-2.751,0-4.67-0.986-5.753-2.961l-1.943,9.629h-7.847l5.634-26.553h7.282l-0.352,2.128L185.185,41.184z M186.546,53.547
		c0.901,0,1.703-0.619,2.403-1.857c0.699-1.238,1.055-2.766,1.055-4.592c0-1.047-0.211-1.788-0.627-2.224
		c-0.408-0.43-0.9-0.648-1.457-0.648c-1.171,0-2.089,0.691-2.753,2.083c-0.661,1.385-0.998,2.826-0.998,4.327
		c0,1.008,0.247,1.742,0.724,2.212C185.375,53.313,185.928,53.547,186.546,53.547"/>
	<polygon fill="#00BDF2" points="108.11,27.434 93.48,43.109 110.063,75.574 97.787,75.574 85.47,49.27 77.453,58.032 
		64.435,58.032 79.085,41.491 71.863,27.434 84.491,27.434 87.709,35.497 94.31,27.434 	"/>
	<path fill="#FFFFFF" d="M131.181,71.547l-5.417,0.278c-0.111-1.483-0.863-2.226-2.26-2.226c-0.573,0-1,0.111-1.288,0.338
		c-0.285,0.229-0.428,0.488-0.428,0.786c0,0.2,0.119,0.41,0.35,0.623c0.237,0.208,0.892,0.515,1.963,0.917
		c1.225,0.472,2.246,0.934,3.076,1.384c0.822,0.457,1.508,1.052,2.047,1.8c0.544,0.744,0.813,1.67,0.813,2.775
		c0,1.041-0.292,2.011-0.875,2.915c-0.58,0.896-1.413,1.637-2.494,2.21c-1.076,0.57-2.602,0.859-4.573,0.859
		c-2.784,0-4.765-0.542-5.948-1.627c-1.183-1.088-1.775-2.484-1.775-4.194v-0.618l5.456-0.36c0,1.164,0.213,1.941,0.63,2.33
		c0.422,0.393,1.017,0.589,1.788,0.589c0.779,0,1.365-0.161,1.755-0.482c0.388-0.323,0.581-0.68,0.581-1.073
		c0-0.28-0.12-0.556-0.371-0.813c-0.242-0.261-0.896-0.578-1.953-0.964c-2.555-0.917-4.178-1.776-4.879-2.573
		c-0.698-0.797-1.042-1.77-1.042-2.908c0-1.026,0.282-1.965,0.859-2.816c0.576-0.848,1.405-1.502,2.491-1.965
		c1.086-0.466,2.372-0.698,3.866-0.698C128.325,66.036,130.869,67.875,131.181,71.547 M132.1,74.903l4.813,0.509
		c0.281-0.606,0.567-0.983,0.866-1.137c0.296-0.155,0.695-0.23,1.2-0.23c0.475,0,0.839,0.075,1.093,0.23
		c0.26,0.153,0.39,0.334,0.39,0.553c0,0.164-0.036,0.385-0.101,0.651c-0.363,0.111-1.219,0.236-2.576,0.383
		c-1.563,0.158-2.802,0.342-3.722,0.552c-0.917,0.21-1.701,0.626-2.351,1.241c-0.654,0.615-0.977,1.501-0.977,2.669
		c0,1.025,0.364,1.933,1.091,2.712c0.731,0.781,1.913,1.17,3.547,1.17c1.599,0,2.905-0.568,3.924-1.702
		c0,0.313,0.069,0.78,0.206,1.411h5.075c-0.204-0.768-0.304-1.419-0.304-1.958c0-0.648,0.194-1.799,0.591-3.466
		c0.43-1.803,0.648-3.1,0.648-3.896c0-1.249-0.455-2.199-1.362-2.848c-0.905-0.65-2.602-0.975-5.09-0.975
		c-2.192,0-3.826,0.336-4.899,1.003C133.094,72.447,132.403,73.487,132.1,74.903 M139.797,78.374
		c-0.19,0.949-0.556,1.641-1.098,2.087c-0.539,0.45-1.08,0.673-1.62,0.673c-0.373,0-0.666-0.091-0.886-0.277
		c-0.217-0.183-0.329-0.438-0.329-0.769c0-0.297,0.162-0.569,0.495-0.811C136.69,79.036,137.834,78.735,139.797,78.374
		 M154.732,66.327l-3.69,17.589h-5.207l3.696-17.589H154.732z M167.886,80.295l-4.949-0.471c-0.548,0.748-1.236,1.12-2.074,1.12
		c-1.202,0-1.866-0.665-1.983-1.998h9.397c0.238-1.32,0.357-2.229,0.357-2.732c0-1.527-0.529-2.816-1.578-3.865
		c-1.051-1.05-2.765-1.577-5.142-1.577c-1.092,0-2.056,0.123-2.885,0.356c-0.832,0.241-1.673,0.697-2.523,1.381
		c-0.851,0.685-1.526,1.531-2.021,2.537c-0.5,1.002-0.746,2.08-0.746,3.22c0,1.663,0.54,3.069,1.612,4.219
		c1.076,1.144,2.87,1.722,5.386,1.722c1.72,0,3.152-0.278,4.305-0.839C166.201,82.81,167.147,81.787,167.886,80.295 M163.5,76.164
		h-4.189c0.24-0.624,0.579-1.136,1.033-1.537c0.446-0.406,0.932-0.604,1.451-0.604c0.493,0,0.898,0.136,1.229,0.418
		c0.324,0.281,0.49,0.697,0.49,1.252C163.514,75.973,163.506,76.126,163.5,76.164 M182.764,74.473l-4.891,0.505
		c-0.138-0.744-0.625-1.12-1.466-1.12c-0.521,0-0.903,0.088-1.143,0.261c-0.244,0.167-0.362,0.351-0.362,0.546
		c0,0.209,0.103,0.394,0.313,0.545c0.21,0.152,0.86,0.309,1.963,0.465c1.876,0.284,3.141,0.717,3.785,1.304
		c0.649,0.59,0.971,1.379,0.971,2.365c0,1.354-0.617,2.504-1.852,3.446c-1.239,0.947-3.089,1.417-5.566,1.417
		c-2.026,0-3.527-0.303-4.494-0.91c-0.965-0.611-1.534-1.694-1.697-3.258l5.127-0.439c0.204,1.007,0.798,1.511,1.787,1.511
		c0.478,0,0.89-0.095,1.23-0.286c0.341-0.193,0.508-0.45,0.508-0.781c0-0.275-0.113-0.463-0.343-0.573
		c-0.233-0.105-0.736-0.22-1.513-0.335c-1.89-0.297-3.186-0.758-3.886-1.383c-0.697-0.621-1.046-1.413-1.046-2.375
		c0-0.774,0.26-1.525,0.777-2.254c0.518-0.73,1.289-1.309,2.323-1.723c1.026-0.417,2.281-0.626,3.756-0.626
		c1.696,0,3.014,0.259,3.948,0.771C181.93,72.061,182.52,73.036,182.764,74.473"/>
	<path fill="#00BDF2" d="M53.059,57.712c-0.534-2.153-2.078-7.583-2.273-7.981c-0.179,0.021-0.367,0.046-0.556,0.068
		c-1.538,0.182-2.906-0.196-4.054-1.256c-0.835-0.771-1.248-1.745-1.306-2.876c-0.057-1.11,0.271-2.105,0.883-3.018
		c0.084-0.125,0.174-0.246,0.258-0.362c-0.001-0.021-0.001-0.035-0.004-0.047c-0.003-0.014-0.007-0.028-0.015-0.038
		c-1.501-1.815-3.002-3.629-4.504-5.442c-0.026-0.031-0.061-0.053-0.086-0.075c-0.497,0.123-0.985,0.238-1.472,0.365
		c-0.496,0.129-1.007,0.075-1.532,0.13c-0.015,0.094-0.039,0.184-0.042,0.275c-0.046,1.766-0.087,3.532-0.134,5.297
		c-0.041,1.533-0.087,3.066-0.134,4.599c-0.01,0.341-0.032,0.682-0.048,1.025c0.129,0.094,0.264,0.104,0.393,0.14
		c1.579,0.428,2.759,1.338,3.296,2.917c0.486,1.424,0.156,2.726-0.798,3.874c-0.291,0.35-0.64,0.637-1.02,0.886
		c-0.103,0.067-0.207,0.132-0.307,0.196c0.118,0.329,3.407,6.512,3.648,6.859c0.472-0.103,0.955-0.194,1.449-0.178
		c0.579,0.019,1.142,0.112,1.672,0.358c0.314,0.146,0.597,0.335,0.818,0.605c0.392,0.479,0.458,1.011,0.23,1.578
		c-0.129,0.322-0.346,0.589-0.601,0.823c-0.495,0.452-1.08,0.739-1.719,0.924c-0.927,0.269-1.857,0.31-2.791,0.037
		c-0.398-0.116-0.766-0.292-1.078-0.573c-0.608-0.55-0.724-1.296-0.312-2.007c0.203-0.35,0.485-0.625,0.81-0.861
		c0.108-0.079,0.218-0.156,0.321-0.231c-0.124-0.337-3.402-6.502-3.635-6.837c-0.314,0.038-0.637,0.091-0.961,0.113
		c-0.313,0.021-0.631,0.033-0.944,0.01c-0.325-0.023-0.647-0.093-0.989-0.146c-0.04,0.046-0.092,0.091-0.126,0.146
		c-1.042,1.673-2.083,3.348-3.122,5.022c-0.021,0.034-0.034,0.074-0.063,0.138c0.083,0.075,0.168,0.159,0.259,0.234
		c0.438,0.361,0.81,0.776,1.081,1.278c0.211,0.39,0.354,0.805,0.376,1.248c0.047,0.919-0.325,1.648-1.062,2.191
		c-0.497,0.366-1.067,0.565-1.672,0.625c-1.597,0.159-3.002-0.304-4.195-1.379c-0.571-0.516-0.98-1.14-1.146-1.904
		c-0.207-0.954,0.063-1.762,0.779-2.413c0.522-0.475,1.161-0.709,1.855-0.796c0.828-0.103,1.636-0.009,2.423,0.273
		c0.062,0.022,0.125,0.041,0.211,0.068c1.082-1.739,2.157-3.469,3.242-5.212c-0.132-0.09-0.245-0.166-0.357-0.243
		c-0.804-0.55-1.408-1.264-1.712-2.194c-0.44-1.35-0.199-2.598,0.658-3.72c0.571-0.748,1.322-1.263,2.209-1.572
		c0.205-0.071,0.421-0.109,0.632-0.167c0.077-0.021,0.15-0.055,0.235-0.087c0.012-0.089,0.028-0.169,0.032-0.248
		c0.018-0.424,0.037-0.848,0.048-1.273c0.034-1.273,0.063-2.546,0.097-3.819c0.036-1.314,0.075-2.628,0.113-3.941
		c0.016-0.562,0.036-1.122,0.049-1.684c0.004-0.19-0.008-0.381-0.013-0.594c-0.441-0.185-0.891-0.373-1.361-0.57
		c-1.759,2.185-3.518,4.371-5.282,6.563c0.083,0.127,0.159,0.239,0.23,0.353c0.396,0.625,0.637,1.299,0.642,2.048
		c0.007,1.088-0.423,1.967-1.275,2.632c-0.609,0.476-1.314,0.715-2.086,0.761c-0.565,0.034-1.121-0.007-1.663-0.181
		c-0.051-0.016-0.107-0.017-0.161-0.022c-0.012-0.001-0.025,0.008-0.042,0.014c-1.584,3.146-3.169,6.296-4.767,9.471
		c0.091,0.094,0.185,0.189,0.278,0.285c0.498,0.512,0.842,1.104,0.987,1.812c0.259,1.263-0.425,2.458-1.653,2.838
		c-0.67,0.208-1.352,0.2-2.02-0.017c-1.273-0.414-2.188-1.216-2.628-2.504c-0.139-0.406-0.188-0.823-0.111-1.254
		c0.185-1.042,0.814-1.673,1.807-1.964c0.564-0.165,1.135-0.144,1.703,0.002c0.119,0.031,0.237,0.062,0.349,0.091
		c0.02-0.01,0.032-0.015,0.043-0.023c0.011-0.008,0.022-0.017,0.028-0.028c0.589-1.144,1.189-2.282,1.765-3.431
		c0.98-1.958,1.946-3.922,2.916-5.884c0.011-0.022,0.004-0.053,0.007-0.096c-0.193-0.176-0.402-0.352-0.592-0.545
		c-0.181-0.184-0.343-0.386-0.509-0.575c-0.559,0.176-9.595,3.953-9.921,4.146c0.004,0.17,0.013,0.347,0.013,0.524
		c-0.003,1.049-0.377,1.92-1.228,2.564c-0.346,0.262-0.736,0.409-1.168,0.458c-0.587,0.066-1.151-0.01-1.671-0.295
		c-0.836-0.458-1.428-1.135-1.75-2.041c-0.235-0.662-0.292-1.342-0.118-2.02c0.253-0.992,0.843-1.704,1.835-2.044
		c0.653-0.224,1.294-0.157,1.923,0.094c0.504,0.203,0.927,0.525,1.279,0.937c0.125,0.145,0.242,0.296,0.377,0.462
		c0.315-0.119,0.634-0.229,0.946-0.36c2.848-1.19,5.695-2.385,8.542-3.578c0.111-0.047,0.218-0.103,0.333-0.158
		c-0.01-0.099-0.012-0.181-0.029-0.26c-0.255-1.194,0.214-2.64,1.501-3.423c0.772-0.471,1.613-0.653,2.515-0.565
		c0.439,0.042,0.862,0.137,1.275,0.287c0.051,0.019,0.104,0.029,0.148,0.04c0.226-0.204,2.927-3.527,5.109-6.283
		c0.075-0.095,0.142-0.197,0.199-0.275c-0.355-0.469-0.693-0.914-1.039-1.369c-0.031,0.001-0.075-0.008-0.11,0.004
		c-3.879,1.402-7.761,2.796-11.644,4.267c0,0.149,0.004,0.298,0.001,0.447c-0.014,0.806-0.18,1.574-0.569,2.287
		c-0.253,0.463-0.579,0.868-1.002,1.181c-1.042,0.769-2.16,0.865-3.328,0.325c-0.824-0.381-1.419-1.012-1.868-1.789
		c-0.074-0.129-0.147-0.258-0.218-0.382c-0.603,0.166-5.788,2.072-6.063,2.231c0.011,0.14,0.022,0.289,0.034,0.438
		c0.03,0.385,0.019,0.767-0.083,1.141c-0.076,0.28-0.191,0.542-0.39,0.759c-0.322,0.349-0.72,0.44-1.156,0.256
		c-0.325-0.137-0.571-0.373-0.782-0.648c-0.286-0.375-0.476-0.798-0.6-1.25c-0.162-0.589-0.214-1.184-0.089-1.787
		c0.059-0.285,0.156-0.554,0.326-0.792c0.301-0.419,0.79-0.631,1.374-0.321c0.296,0.157,0.523,0.394,0.716,0.664
		c0.079,0.11,0.153,0.224,0.244,0.357c1.02-0.37,2.032-0.735,3.041-1.106c1.01-0.373,2.028-0.722,3.049-1.124
		c-0.024-0.21-0.054-0.398-0.068-0.587c-0.093-1.216,0.154-2.343,0.913-3.324c0.421-0.545,0.957-0.942,1.619-1.141
		c0.835-0.249,1.65-0.166,2.429,0.229c0.756,0.383,1.317,0.968,1.747,1.689c0.049,0.082,0.093,0.167,0.14,0.251
		c0.039,0.071,0.079,0.141,0.109,0.196c0.035,0.013,0.047,0.021,0.06,0.021c0.013,0.002,0.026-0.001,0.038-0.005
		c0.066-0.02,0.132-0.039,0.196-0.063c3.704-1.36,7.408-2.722,11.112-4.083c0.024-0.009,0.044-0.031,0.086-0.061
		c0.003-0.302-0.115-0.599-0.143-0.907c-0.027-0.299-0.05-0.598-0.077-0.924c-1.081-0.281-2.167-0.538-3.254-0.791
		c-1.077-0.251-2.155-0.502-3.231-0.753c-1.089-0.255-2.18-0.503-3.279-0.733c-0.122,0.112-0.23,0.213-0.341,0.313
		c-0.539,0.48-1.169,0.77-1.885,0.819c-0.987,0.069-1.825-0.274-2.499-1.003c-0.102-0.109-0.196-0.225-0.289-0.333
		c-0.437,0.146-7.429,3.832-8.193,4.318c-0.01,0.215-0.021,0.445-0.034,0.676c-0.033,0.61-0.194,1.186-0.473,1.729
		c-0.189,0.37-0.436,0.696-0.763,0.956c-0.318,0.252-0.668,0.414-1.086,0.428c-0.387,0.013-0.728-0.096-1.039-0.315
		c-0.356-0.25-0.608-0.586-0.803-0.97c-0.271-0.536-0.393-1.111-0.416-1.702c-0.027-0.734,0.1-1.445,0.414-2.116
		c0.169-0.363,0.387-0.692,0.678-0.971c0.179-0.171,0.38-0.312,0.605-0.417c0.54-0.252,1.062-0.211,1.568,0.089
		c0.388,0.23,0.661,0.569,0.873,0.961c0.064,0.119,0.125,0.24,0.182,0.352c0.046,0.001,0.078,0.012,0.099,0.001
		c2.622-1.389,5.243-2.778,7.871-4.172c-0.007-0.278-0.014-0.563-0.021-0.851c-0.062-0.033-0.106-0.071-0.155-0.08
		c-0.539-0.091-1.079-0.172-1.616-0.266c-1.44-0.25-2.879-0.504-4.318-0.756c-0.39-0.068-0.78-0.136-1.193-0.208
		c-0.064,0.099-0.133,0.197-0.195,0.3c-0.223,0.368-0.507,0.675-0.869,0.914c-0.341,0.225-0.717,0.265-1.103,0.217
		c-0.25-0.031-0.454-0.182-0.626-0.366c-0.251-0.269-0.396-0.595-0.45-0.952c-0.155-1.014,0.098-1.929,0.727-2.735
		c0.265-0.339,0.602-0.583,1.018-0.731c0.494-0.177,1.088,0.025,1.395,0.429c0.277,0.364,0.382,0.782,0.417,1.226
		c0.012,0.162,0.009,0.326,0.014,0.515c0.805,0.187,1.616,0.286,2.416,0.441c0.791,0.153,1.585,0.291,2.38,0.419
		c0.806,0.13,1.604,0.315,2.427,0.404c0.274-0.552,0.622-1.021,1.103-1.38c-0.035-0.188-0.146-0.313-0.229-0.451
		c-1.121-1.865-2.244-3.728-3.294-5.634c-0.145-0.263-0.288-0.526-0.422-0.771c-0.156-0.051-0.23,0.054-0.32,0.103
		c-0.268,0.147-0.545,0.251-0.856,0.251c-0.438,0-0.718-0.215-0.848-0.631c-0.099-0.316-0.062-0.629,0.024-0.932
		c0.259-0.904,0.79-1.613,1.588-2.118c0.223-0.141,0.465-0.23,0.725-0.272c0.389-0.063,0.87,0.063,1.027,0.659
		c0.06,0.229,0.054,0.46,0.011,0.692c-0.071,0.381-0.212,0.734-0.411,1.066c-0.07,0.117-0.141,0.233-0.219,0.365
		c1.288,2.446,2.722,4.804,4.148,7.156c2.486-0.562,4.002,1.188,4.076,3.016c0.009,0.01,0.019,0.02,0.029,0.029
		c0.009,0.009,0.019,0.023,0.031,0.026c3.11,0.721,6.221,1.441,9.352,2.166c0.168-0.31,0.328-0.641,0.521-0.95
		c0.194-0.313,0.422-0.605,0.646-0.924c-0.045-0.135-0.179-0.215-0.286-0.314c-1.215-1.126-2.433-2.249-3.651-3.372
		c-1.551-1.429-3.103-2.857-4.654-4.285c-0.11-0.101-0.225-0.196-0.348-0.302c-0.126,0.079-0.24,0.15-0.354,0.222
		c-0.527,0.335-1.1,0.551-1.717,0.637c-0.527,0.073-1.04,0-1.515-0.248c-0.603-0.315-0.936-0.824-1.021-1.495
		c-0.07-0.543,0.016-1.068,0.242-1.563c0.622-1.364,1.666-2.25,3.102-2.663c0.534-0.154,1.08-0.159,1.619,0.013
		c0.821,0.261,1.341,0.931,1.394,1.789c0.042,0.682-0.16,1.297-0.493,1.877c-0.108,0.189-0.235,0.368-0.355,0.555
		c0.022,0.037,0.036,0.079,0.064,0.105c2.96,2.728,5.92,5.454,8.901,8.199c0.06-0.031,0.133-0.061,0.197-0.105
		c0.702-0.49,1.465-0.848,2.294-1.062c0.024-0.006,0.045-0.028,0.094-0.061c-0.006-0.638-0.119-1.284-0.185-1.933
		c-0.066-0.65-0.129-1.302-0.224-1.964c-0.292-0.041-0.563-0.063-0.827-0.118c-1.25-0.26-2.302-0.853-3.083-1.88
		c-0.494-0.648-0.776-1.385-0.828-2.196c-0.06-0.936,0.204-1.786,0.747-2.549c0.102-0.143,0.21-0.282,0.329-0.439
		c-0.085-0.083-0.158-0.162-0.239-0.232c-1.642-1.43-3.285-2.859-4.926-4.29c-0.1-0.087-0.19-0.187-0.297-0.293
		c-0.095,0.066-0.207,0.143-0.319,0.22c-0.538,0.367-1.125,0.613-1.771,0.719c-0.318,0.052-0.63,0.022-0.933-0.072
		c-0.61-0.19-0.937-0.727-0.845-1.374c0.049-0.342,0.162-0.667,0.346-0.959c0.763-1.214,1.841-1.961,3.267-2.185
		c0.317-0.05,0.63,0.003,0.926,0.122c0.462,0.185,0.713,0.531,0.744,1.035c0.026,0.425-0.097,0.813-0.3,1.177
		c-0.118,0.213-0.256,0.415-0.391,0.63c1.84,1.604,3.677,3.204,5.532,4.82c0.077-0.041,0.16-0.081,0.24-0.127
		c0.622-0.361,1.284-0.604,2.003-0.678c0.079-0.008,0.156-0.035,0.252-0.057c0.045-0.517,0.005-1.021,0.012-1.523
		c0.006-0.493,0.007-0.986,0.001-1.479c-0.006-0.506-0.024-1.012-0.036-1.504c-0.086-0.115-0.202-0.101-0.309-0.115
		c-0.605-0.083-1.17-0.27-1.67-0.631C33.222,5.554,33.039,5.37,32.9,5.146c-0.29-0.471-0.308-0.955-0.053-1.445
		c0.154-0.297,0.386-0.529,0.653-0.727c0.437-0.324,0.934-0.515,1.458-0.629c0.789-0.173,1.577-0.146,2.354,0.083
		c0.383,0.113,0.747,0.274,1.056,0.53c0.157,0.13,0.308,0.276,0.428,0.439c0.375,0.508,0.384,1.118,0.041,1.652
		c-0.165,0.257-0.383,0.464-0.632,0.639c-0.339,0.237-0.714,0.401-1.111,0.517c-0.142,0.042-0.286,0.08-0.419,0.117
		c-0.047,0.349-0.018,4.241,0.033,4.658c0.412,0.127,0.836,0.229,1.237,0.392c0.39,0.159,0.755,0.38,1.142,0.58
		c0.265-0.212,5.032-5.091,5.231-5.363c-0.062-0.112-0.129-0.23-0.191-0.35c-0.162-0.311-0.239-0.638-0.195-0.99
		c0.048-0.391,0.234-0.698,0.553-0.921c0.25-0.175,0.53-0.275,0.838-0.301c0.924-0.078,1.688,0.25,2.328,0.899
		c0.274,0.278,0.461,0.611,0.557,0.991c0.17,0.671-0.126,1.309-0.756,1.603c-0.549,0.256-1.115,0.238-1.679,0.053
		c-0.219-0.072-0.431-0.17-0.657-0.261c-0.039,0.027-0.088,0.052-0.125,0.09c-1.713,1.751-3.426,3.504-5.147,5.267
		c0.074,0.106,0.133,0.196,0.197,0.282c0.63,0.85,0.905,1.804,0.805,2.856c-0.072,0.755-0.366,1.427-0.83,2.024
		c-0.534,0.688-1.223,1.167-2.026,1.489c-0.114,0.045-0.229,0.086-0.338,0.127c-0.016,0.309,0.303,3.411,0.398,3.884
		c0.094,0.104,0.225,0.088,0.344,0.093c1.433,0.056,2.725,0.537,3.926,1.292c0.242,0.152,0.465,0.335,0.721,0.521
		c1.448-1.254,2.838-2.568,4.258-3.872c-0.041-0.099-0.075-0.185-0.113-0.27c-0.249-0.558-0.39-1.136-0.348-1.753
		c0.084-1.251,0.903-2.253,2.118-2.578c0.497-0.133,1.04-0.15,1.733-0.052c0.037-0.074,0.088-0.152,0.116-0.238
		c0.551-1.69,1.1-3.381,1.648-5.072c0.017-0.051,0.028-0.104,0.048-0.179c-0.101-0.067-0.197-0.137-0.299-0.199
		c-0.403-0.243-0.756-0.542-1.038-0.921c-0.19-0.255-0.331-0.533-0.408-0.844c-0.151-0.606,0.078-1.163,0.616-1.476
		c0.202-0.118,0.417-0.201,0.654-0.226c1.396-0.144,2.513,0.379,3.398,1.437c0.222,0.265,0.364,0.576,0.434,0.919
		c0.122,0.597-0.107,1.13-0.643,1.425c-0.418,0.231-0.874,0.304-1.35,0.25c-0.12-0.014-0.239-0.028-0.349-0.042
		c-0.147,0.294-1.696,5.019-1.805,5.498c0.041,0.037,0.084,0.091,0.141,0.122c0.675,0.372,1.207,0.893,1.613,1.544
		c0.015,0.022,0.035,0.042,0.07,0.084c0.09-0.011,0.201-0.01,0.302-0.039c1.723-0.479,3.445-0.961,5.167-1.444
		c0.09-0.025,0.177-0.066,0.282-0.106c-0.043-0.191-0.089-0.374-0.125-0.558c-0.077-0.381-0.081-0.762,0.013-1.14
		c0.02-0.08,0.044-0.159,0.073-0.235c0.254-0.654,0.813-1.012,1.622-0.81c0.423,0.106,0.775,0.342,1.083,0.641
		c0.694,0.674,1.09,1.499,1.199,2.458c0.041,0.359-0.007,0.712-0.134,1.05c-0.227,0.605-0.793,1.036-1.621,0.81
		c-0.521-0.142-0.929-0.455-1.284-0.846c-0.119-0.131-0.227-0.272-0.357-0.43c-1.929,0.539-3.859,1.079-5.784,1.616
		c-0.072,0.163-0.014,0.312,0,0.458c0.041,0.427,0.024,0.851-0.115,1.258c-0.388,1.132-1.201,1.766-2.365,1.956
		c-0.897,0.146-1.74-0.042-2.532-0.479c-0.083-0.046-0.167-0.087-0.27-0.141c-0.21,0.156-0.394,0.34-0.583,0.516
		c-1.23,1.146-2.502,2.246-3.714,3.398c0.932,1.792,1.009,1.973,1.202,4.025c0.01,0.009,0.02,0.019,0.031,0.027
		c0.011,0.008,0.023,0.018,0.035,0.019c3.055,0.231,6.11,0.462,9.166,0.691c0.053,0.004,0.107-0.009,0.185-0.016
		c0.047-0.122,0.092-0.248,0.144-0.372c0.362-0.874,0.918-1.588,1.754-2.05c1.153-0.639,2.298-0.613,3.417,0.097
		c0.08,0.051,0.158,0.103,0.253,0.164c0.41-0.38,0.76-0.8,1.13-1.199c0.363-0.391,0.723-0.787,1.082-1.182
		c0.367-0.405,0.733-0.811,1.111-1.229c-0.071-0.133-0.134-0.252-0.197-0.371c-0.283-0.541-0.464-1.11-0.458-1.727
		c0.003-0.319,0.067-0.626,0.22-0.909c0.27-0.499,0.755-0.714,1.312-0.604c0.446,0.089,0.817,0.315,1.136,0.623
		c0.694,0.671,1.106,1.487,1.198,2.454c0.03,0.317-0.009,0.631-0.114,0.931c-0.234,0.662-0.774,1.001-1.573,0.793
		c-0.242-0.063-0.457-0.181-0.659-0.325c-0.099-0.071-0.197-0.143-0.317-0.23c-0.392,0.371-0.724,0.786-1.085,1.172
		c-0.374,0.399-0.74,0.808-1.109,1.212c-0.36,0.393-0.72,0.786-1.095,1.194c0.923,1.354,1.044,2.795,0.479,4.323
		c0.058,0.051,0.114,0.11,0.18,0.153c1.18,0.771,2.361,1.54,3.543,2.308c0.067,0.043,0.14,0.077,0.236,0.13
		c0.104-0.121,0.193-0.243,0.301-0.347c0.313-0.301,0.674-0.508,1.118-0.553c0.528-0.053,0.968,0.116,1.327,0.504
		c0.258,0.279,0.421,0.613,0.487,0.981c0.152,0.85-0.013,1.634-0.546,2.326c-0.221,0.286-0.494,0.508-0.824,0.661
		c-0.781,0.361-1.566,0.076-1.995-0.545c-0.206-0.298-0.328-0.627-0.37-0.989c-0.05-0.426-0.014-0.846,0.105-1.278
		c-0.309-0.252-0.653-0.446-0.981-0.664c-0.331-0.219-0.665-0.434-0.997-0.65c-0.321-0.209-0.642-0.419-0.964-0.626
		c-0.332-0.212-0.653-0.441-1.01-0.644c-0.1,0.12-0.185,0.224-0.271,0.328c-0.463,0.563-1.026,0.997-1.726,1.205
		c-1.317,0.391-2.46,0.073-3.401-0.928c-0.459-0.488-0.743-1.078-0.9-1.729c-0.045-0.184-0.082-0.37-0.127-0.579
		c-1.065-0.113-2.128-0.179-3.189-0.26c-1.05-0.081-2.1-0.166-3.15-0.243c-1.063-0.079-2.127-0.152-3.209-0.229
		c-0.151,0.336-0.281,0.68-0.456,1c-0.183,0.335-0.393,0.659-0.622,0.965c-0.219,0.293-0.479,0.557-0.738,0.854
		c1.464,1.795,2.939,3.573,4.445,5.359c0.143-0.052,0.282-0.098,0.417-0.154c0.704-0.29,1.436-0.457,2.197-0.436
		c1.385,0.037,2.602,0.49,3.548,1.538c0.716,0.793,1.078,1.736,1.087,2.807c0.002,0.286-0.041,0.572-0.062,0.858
		c-0.005,0.081-0.01,0.162-0.015,0.26c1.951,0.766,3.895,1.53,5.838,2.291c0.074,0.029,0.159,0.028,0.259,0.045
		c0.07-0.119,0.14-0.234,0.208-0.35c0.299-0.514,0.662-0.973,1.139-1.335c0.285-0.217,0.597-0.378,0.945-0.479
		c0.67-0.193,1.327,0.088,1.675,0.572c0.146,0.202,0.254,0.42,0.331,0.657c0.191,0.586,0.202,1.188,0.104,1.787
		c-0.153,0.935-0.514,1.784-1.101,2.534c-0.264,0.337-0.57,0.627-0.929,0.861c-0.219,0.143-0.454,0.249-0.707,0.321
		c-0.651,0.185-1.277-0.007-1.681-0.546c-0.129-0.172-0.24-0.37-0.313-0.573c-0.169-0.467-0.244-0.954-0.191-1.453
		c0.027-0.258,0.062-0.515,0.096-0.798c-0.06-0.034-0.124-0.081-0.196-0.109c-1.899-0.734-3.799-1.466-5.699-2.198
		c-0.062-0.023-0.126-0.042-0.209-0.07c-0.324,0.535-0.66,1.045-1.122,1.464c-0.459,0.417-0.961,0.765-1.492,1.035
		c-0.017,0.037-0.024,0.049-0.029,0.061c-0.004,0.013-0.011,0.028-0.008,0.04c0.726,2.594,1.453,5.188,2.181,7.781
		c0.006,0.024,0.03,0.044,0.059,0.086c0.065-0.002,0.144-0.003,0.222-0.006c0.315-0.011,0.629-0.038,0.943-0.03
		c0.531,0.012,1.022,0.175,1.463,0.473c0.749,0.506,1.058,1.357,0.822,2.231c-0.183,0.676-0.591,1.199-1.13,1.622
		c-0.903,0.71-1.938,0.995-3.076,0.882c-0.467-0.046-0.904-0.207-1.294-0.481c-0.711-0.5-1.017-1.324-0.804-2.167
		c0.176-0.694,0.591-1.225,1.137-1.665C52.686,57.967,52.869,57.849,53.059,57.712"/>
</g>
</svg>
